<?xml version="1.0" encoding="UTF-8"?>
<svg width="64px" height="64px" viewBox="0 0 64 64" version="1.1" xmlns="http://www.w3.org/2000/svg" xmlns:xlink="http://www.w3.org/1999/xlink">
    <title>kelmscott-logo-shadow</title>
    <defs>
        <path d="M25.5966,12.3481 C26.1206,12.3481 26.3846,12.5261 26.3846,12.8851 C26.3846,13.2431 26.1496,13.4231 25.6816,13.4231 L25.6816,13.4231 L24.4146,13.4231 C23.5246,13.4231 22.9966,13.6361 22.8326,14.0631 C22.6686,14.4911 22.5866,15.9661 22.5866,18.4851 L22.5866,18.4851 L22.5866,45.8911 C22.5866,48.4101 22.6686,49.8851 22.8326,50.3121 C22.9966,50.7401 23.5246,50.9531 24.4146,50.9531 L24.4146,50.9531 L25.6816,50.9531 C26.1496,50.9531 26.3846,51.1331 26.3846,51.4911 C26.3846,51.8491 26.1206,52.0281 25.5966,52.0281 L25.5966,52.0281 L10.1476,52.0281 C9.6206,52.0281 9.3596,51.8611 9.3596,51.5281 C9.3596,51.1941 9.9796,51.0031 11.2216,50.9551 C12.7976,50.9081 13.6936,50.7661 13.9086,50.5271 C14.1226,50.2891 14.2306,49.0971 14.2306,46.9491 L14.2299308,17.1401163 C14.2205628,15.1727074 14.1128727,14.0762818 13.9086,13.8491 C13.6936,13.6101 12.7976,13.4681 11.2216,13.4211 C9.9796,13.3731 9.3596,13.1821 9.3596,12.8481 C9.3596,12.5151 9.6206,12.3481 10.1476,12.3481 L10.1476,12.3481 Z M31.372,35.382 C32.268,35.326 33.91,35.541 34.736,35.761 C35.728,36.025 37.425,36.225 38.955,36.092 L38.955,36.092 L42.638,41.729 C43.07,42.442 43.769,43.515 44.731,44.942 C44.874,45.134 45.23,45.66 45.802,46.521 L45.802,46.521 L46.978,48.268 L47.586,49.104 C48.113,49.913 48.545,50.425 48.881,50.639 C49.217,50.852 49.853,50.958 50.79,50.958 C51.726,50.958 52.193,51.148 52.193,51.529 C52.193,51.863 51.31,52.028 49.543,52.028 L49.543,52.028 L35.455,52.028 C34.785,52.028 34.452,51.861 34.452,51.527 C34.452,51.193 35.097,51.002 36.387,50.954 C37.198,50.907 37.604,50.644 37.604,50.166 C37.604,49.688 36.602,47.826 34.596,44.577 C34.022,43.718 33.186,42.381 32.088,40.565 C31.838,40.118 31.047,38.848 29.784,36.846 C29.851,35.893 30.621,35.394 31.372,35.382 Z" id="path-1"></path>
        <filter x="-16.3%" y="-12.6%" width="132.7%" height="135.3%" filterUnits="objectBoundingBox" id="filter-2">
            <feOffset dx="0" dy="2" in="SourceAlpha" result="shadowOffsetOuter1"></feOffset>
            <feGaussianBlur stdDeviation="2" in="shadowOffsetOuter1" result="shadowBlurOuter1"></feGaussianBlur>
            <feColorMatrix values="0 0 0 0 0   0 0 0 0 0   0 0 0 0 0  0 0 0 0.5 0" type="matrix" in="shadowBlurOuter1"></feColorMatrix>
        </filter>
        <path d="M45.4082,16.7764 C45.0082,16.9944 41.6542,18.7554 39.8152,19.9294 C38.0272,21.0734 35.4082,22.7514 33.7452,23.8814 C31.8362,25.1794 30.3852,26.1444 27.4902,28.6724 C27.4902,25.8004 27.7392,24.4634 28.0722,23.0834 C28.3352,21.9954 29.0872,20.4554 29.6772,19.8184 C30.3452,19.0974 31.1822,18.8414 31.7532,19.4644 C32.3502,20.1194 33.2462,20.0034 33.7282,18.9584 C34.1982,17.9404 34.4252,16.8634 34.6252,15.7524 C34.8922,14.2664 35.4782,12.4464 36.1072,11.8714 C36.9312,11.1174 38.0692,10.7844 38.9012,11.5224 C40.2162,12.6864 41.2632,12.7034 42.2122,11.5394 C43.0252,10.5404 43.3432,9.3764 44.3752,8.2454 C44.8302,7.7454 45.9532,6.9694 46.7492,6.7124 C47.7672,6.3814 48.9762,6.3264 49.4882,7.5054 C49.8812,8.4114 49.6472,10.2574 51.4612,9.9744 C52.3622,9.8344 54.0892,8.8434 55.2992,8.9704 C55.9042,9.0334 56.6842,9.2124 57.3252,10.0354 C57.9662,10.8574 57.7622,12.4874 57.5792,12.9734 C57.0102,14.4864 55.1262,15.7374 55.5472,16.7004 C55.7812,17.2374 56.8482,17.8934 57.2492,18.2084 C57.6492,18.5224 57.9002,18.9314 57.8962471,19.8214 C57.8932,20.5654 57.4602,21.2584 56.7652,21.9694 C55.7962,22.9614 54.5562,23.4124 53.2842,23.8464 C52.4852,24.1204 51.7082,24.4904 50.9772,24.9154 C50.2532,25.3374 49.9292,26.0244 50.1702,26.8794 C50.7252,28.8514 50.0672,29.6784 48.0122,29.8394 C45.2562,30.0564 43.6972,29.0674 40.9712,29.5364 C40.3642,29.6394 40.0332,29.9404 40.1612,30.5854 C40.2332,30.9484 40.3682,31.2984 40.4482,31.6614 C40.6552,32.5864 40.2222,33.0374 39.3822,33.4574 C37.0372,34.6284 33.6392,32.8814 31.3812,32.9864 C30.1012,33.0464 28.5112,34.0654 27.8092,35.1824 C27.0992,36.3134 26.5232,37.7554 26.0202,39.8584 C25.8872,40.4184 25.7142,40.3964 25.3332,40.1324 C24.8042,39.7674 24.5422,39.2884 24.5672,38.6324 C24.6192,37.2444 25.3282,35.3664 25.8132,34.5614 C27.3302,32.0494 28.7632,31.0354 30.1182,29.7374 C33.0472,26.9334 38.7542,22.7684 40.3092,21.6094 C41.1172,20.9954 46.0202,17.8934 46.2872,17.6934 C47.0862,17.0944 46.6532,16.0964 45.4082,16.7764" id="path-3"></path>
        <filter x="-21.0%" y="-14.8%" width="142.0%" height="141.4%" filterUnits="objectBoundingBox" id="filter-4">
            <feOffset dx="0" dy="2" in="SourceAlpha" result="shadowOffsetOuter1"></feOffset>
            <feGaussianBlur stdDeviation="2" in="shadowOffsetOuter1" result="shadowBlurOuter1"></feGaussianBlur>
            <feColorMatrix values="0 0 0 0 0   0 0 0 0 0   0 0 0 0 0  0 0 0 0.5 0" type="matrix" in="shadowBlurOuter1"></feColorMatrix>
        </filter>
    </defs>
    <g id="kelmscott-logo-shadow" stroke="none" stroke-width="1" fill="none" fill-rule="evenodd">
        <path d="M60,64 L4,64 C1.791,64 0,62.209 0,60 L0,4 C0,1.791 1.791,0 4,0 L60,0 C62.209,0 64,1.791 64,4 L64,60 C64,62.209 62.209,64 60,64" id="#" fill="#417400"></path>
        <g id="K">
            <use fill="black" fill-opacity="1" filter="url(#filter-2)" xlink:href="#path-1"></use>
            <use fill="#FFFFFF" fill-rule="evenodd" xlink:href="#path-1"></use>
        </g>
        <g id="Leaf">
            <use fill="black" fill-opacity="1" filter="url(#filter-4)" xlink:href="#path-3"></use>
            <use fill="#FFFFFF" fill-rule="evenodd" xlink:href="#path-3"></use>
        </g>
    </g>
</svg>